<?xml version="1.0" encoding="UTF-8"?>
<svg xmlns="http://www.w3.org/2000/svg" width="520" height="720" viewBox="0 0 520 720">
  <defs>
    <marker id="arrow" markerWidth="8" markerHeight="8" refX="7" refY="3" orient="auto">
      <path d="M0,0 L8,3 L0,6 Z" fill="#334155"/>
    </marker>
    <style>
      .act { font: 11px Arial, sans-serif; fill: #0f172a; }
      .cap { font: bold 14px Arial, sans-serif; fill: #0f172a; }
      .dec { font: 10px Arial, sans-serif; fill: #0f172a; }
    </style>
  </defs>
  <rect width="520" height="720" fill="#fff"/>
  <circle cx="260" cy="35" r="14" fill="#0f172a"/>
  <rect x="155" y="70" width="210" height="40" rx="18" fill="#eff6ff" stroke="#3b82f6" stroke-width="1.5"/>
  <text x="260" y="95" text-anchor="middle" class="act">Open app &amp; authenticate</text>
  <polygon points="260,130 300,160 260,190 220,160" fill="#fef9c3" stroke="#ca8a04" stroke-width="1.5"/>
  <text x="260" y="164" text-anchor="middle" class="dec">Logged in?</text>
  <rect x="155" y="210" width="210" height="40" rx="18" fill="#eff6ff" stroke="#3b82f6" stroke-width="1.5"/>
  <text x="260" y="235" text-anchor="middle" class="act">Search and select route</text>
  <rect x="130" y="270" width="260" height="40" rx="18" fill="#ecfdf5" stroke="#059669" stroke-width="1.5"/>
  <text x="260" y="295" text-anchor="middle" class="act">Request prediction &amp; stops (API)</text>
  <rect x="130" y="330" width="260" height="40" rx="18" fill="#ecfdf5" stroke="#059669" stroke-width="1.5"/>
  <text x="260" y="355" text-anchor="middle" class="act">Display map, density, ETA panel</text>
  <polygon points="260,390 300,420 260,450 220,420" fill="#fef9c3" stroke="#ca8a04" stroke-width="1.5"/>
  <text x="260" y="424" text-anchor="middle" class="dec">Threshold</text>
  <text x="260" y="436" text-anchor="middle" class="dec">exceeded?</text>
  <rect x="155" y="470" width="210" height="40" rx="18" fill="#fff7ed" stroke="#ea580c" stroke-width="1.5"/>
  <text x="260" y="495" text-anchor="middle" class="act">Send local alert notification</text>
  <polygon points="260,530 300,560 260,590 220,560" fill="#fef9c3" stroke="#ca8a04" stroke-width="1.5"/>
  <text x="260" y="564" text-anchor="middle" class="dec">Submit</text>
  <text x="260" y="576" text-anchor="middle" class="dec">feedback?</text>
  <rect x="130" y="610" width="260" height="40" rx="18" fill="#fff7ed" stroke="#ea580c" stroke-width="1.5"/>
  <text x="260" y="635" text-anchor="middle" class="act">Save to Firestore + POST /report_density</text>
  <circle cx="260" cy="685" r="16" fill="none" stroke="#0f172a" stroke-width="3"/>
  <circle cx="260" cy="685" r="10" fill="#0f172a"/>
  <line x1="260" y1="49" x2="260" y2="70" stroke="#334155" marker-end="url(#arrow)"/>
  <line x1="260" y1="110" x2="260" y2="130" stroke="#334155" marker-end="url(#arrow)"/>
  <line x1="260" y1="190" x2="260" y2="210" stroke="#334155" marker-end="url(#arrow)"/>
  <line x1="260" y1="250" x2="260" y2="270" stroke="#334155" marker-end="url(#arrow)"/>
  <line x1="260" y1="310" x2="260" y2="330" stroke="#334155" marker-end="url(#arrow)"/>
  <line x1="260" y1="370" x2="260" y2="390" stroke="#334155" marker-end="url(#arrow)"/>
  <line x1="260" y1="450" x2="260" y2="470" stroke="#334155" marker-end="url(#arrow)"/>
  <line x1="260" y1="510" x2="260" y2="530" stroke="#334155" marker-end="url(#arrow)"/>
  <line x1="260" y1="590" x2="260" y2="610" stroke="#334155" marker-end="url(#arrow)"/>
  <line x1="260" y1="650" x2="260" y2="669" stroke="#334155" marker-end="url(#arrow)"/>
  <text x="330" y="420" class="dec">No</text>
  <path d="M300,420 L380,420 L380,560 L300,560" fill="none" stroke="#64748b" stroke-width="1.2" marker-end="url(#arrow)"/>
  <text x="395" y="490" class="dec">No</text>
  <path d="M300,560 L400,560 L400,685 L280,685" fill="none" stroke="#64748b" stroke-width="1.2" marker-end="url(#arrow)"/>
  <text x="330" y="555" class="dec">Yes</text>
  <text x="330" y="415" class="dec">Yes</text>
  <text x="260" y="710" text-anchor="middle" class="cap">Figure 7.3 - Activity diagram (route selection flow)</text>
</svg>
